<?xml version="1.0" encoding="utf-8"?>
<!-- Generator: Adobe Illustrator 22.1.0, SVG Export Plug-In . SVG Version: 6.00 Build 0)  -->
<svg version="1.1" id="icon" xmlns="http://www.w3.org/2000/svg" xmlns:xlink="http://www.w3.org/1999/xlink" x="0px" y="0px"
	 viewBox="0 0 18 18" style="enable-background:new 0 0 18 18;" xml:space="preserve">
<style type="text/css">
	.st0{fill:#4D3D3D;}
</style>
<path id="analyze" class="st0" d="M16.3,18c-0.4,0-0.9-0.2-1.2-0.5l-3.1-3l0.8-0.8l3.1,3c0.2,0.2,0.6,0.2,0.8,0
	c0.1-0.1,0.2-0.2,0.2-0.4s-0.1-0.3-0.2-0.4l-3.1-3.1l0.8-0.8l3,3.1c0.3,0.3,0.5,0.7,0.5,1.2s-0.2,0.9-0.5,1.2
	C17.2,17.8,16.7,18,16.3,18z M7.3,14.6c-4,0-7.3-3.3-7.3-7.3S3.3,0,7.3,0s7.3,3.3,7.3,7.3S11.3,14.6,7.3,14.6z M7.3,1.1
	c-3.4,0-6.2,2.8-6.2,6.2s2.8,6.2,6.2,6.2s6.2-2.8,6.2-6.2S10.7,1.1,7.3,1.1z M4.1,10.5c-1.8-1.8-1.8-4.6,0-6.4l0.8,0.8
	c-1.3,1.3-1.3,3.5,0,4.8L4.1,10.5z"/>
</svg>
