<svg xmlns="http://www.w3.org/2000/svg" viewBox="0 0 14.3 18"><defs><style>.cls-1{fill:#4d3d3d;}</style></defs><title>analyze-page-4</title><g id="Capa_2" data-name="Capa 2"><g id="icon"><path class="cls-1" d="M14.2,4.2a1.44,1.44,0,0,1-.2-.3L10.2.3C10.1.2,10,.1,9.9.1h0C9.8.1,9.7,0,9.5,0H2.3A2.33,2.33,0,0,0,0,2.3V15.7A2.33,2.33,0,0,0,2.3,18H12a2.33,2.33,0,0,0,2.3-2.3V4.7A2,2,0,0,0,14.2,4.2Zm-1,11.3a1.11,1.11,0,0,1-1.1,1.1H2.3a1.11,1.11,0,0,1-1.1-1.1V2.1A1.11,1.11,0,0,1,2.3,1H9.1V2.6a2.33,2.33,0,0,0,2.3,2.3h1.8V15.5Z"/><path id="analyze" class="cls-1" d="M11.38,15.4a.71.71,0,0,1-.6-.3l-1.6-1.6.4-.4,1.6,1.6a.3.3,0,0,0,.4,0c.1-.1.1-.1.1-.2a.35.35,0,0,0-.1-.2L10,12.7l.4-.4L12,13.9a.86.86,0,0,1,.3.6.71.71,0,0,1-.3.6A.86.86,0,0,1,11.38,15.4Zm-4.8-1.8a3.9,3.9,0,0,1-3.9-3.9,3.84,3.84,0,0,1,3.9-3.9,3.84,3.84,0,0,1,3.9,3.9A3.9,3.9,0,0,1,6.58,13.6Zm0-7.1a3.24,3.24,0,0,0-3.3,3.2,3.3,3.3,0,0,0,6.6,0A3.24,3.24,0,0,0,6.58,6.5Z"/></g></g></svg>