<svg xmlns="http://www.w3.org/2000/svg" viewBox="0 0 17.6 17.7"><defs><style>.cls-1,.cls-2{fill:#4d3d3d;}.cls-1{opacity:0.95;isolation:isolate;}</style></defs><title>analyze-keywords</title><g id="Capa_2" data-name="Capa 2"><g id="icon"><path class="cls-1" d="M9,8.74a2.06,2.06,0,0,0,2-1.9,2.06,2.06,0,0,0-1.9-2,2,2,0,0,0-1.9,1.3h-.9c-.2,0-.4.1-.4.2H3.28v.9h.5v.2l.4.1V8H5v-.4l.5.1v-.5h.4c0,.1.2.2.4.2h.9A1.92,1.92,0,0,0,9,8.74Zm1.2-1.9a.47.47,0,0,1-.5.5.63.63,0,0,1-.5-.6.47.47,0,0,1,.5-.5A.63.63,0,0,1,10.18,6.84Z"/><path id="analyze" class="cls-2" d="M16,17.7a1.81,1.81,0,0,1-1.18-.49l-3-2.95.79-.79,3,2.95a.6.6,0,0,0,.79,0,.49.49,0,0,0,0-.79l-3-3,.79-.79,2.95,3a1.66,1.66,0,0,1,0,2.36A1.41,1.41,0,0,1,16,17.7ZM7.18,14.35A7.22,7.22,0,0,1,0,7.18,7.22,7.22,0,0,1,7.18,0a7.22,7.22,0,0,1,7.18,7.18A7.22,7.22,0,0,1,7.18,14.35Zm0-13.27a6.1,6.1,0,1,0,6.1,6.1A6.13,6.13,0,0,0,7.18,1.08Z"/></g></g></svg>