<?xml version="1.0" encoding="utf-8"?>
<!-- Generator: Adobe Illustrator 22.1.0, SVG Export Plug-In . SVG Version: 6.00 Build 0)  -->
<svg version="1.1" id="icon" xmlns="http://www.w3.org/2000/svg" xmlns:xlink="http://www.w3.org/1999/xlink" x="0px" y="0px"
	 viewBox="0 0 18 19" style="enable-background:new 0 0 18 19;" xml:space="preserve">
<style type="text/css">
	.st0{fill:#4D3D3D;}
</style>
<title>settings</title>
<desc>Created with Sketch.</desc>
<g id="Page-1">
	<g id="Extension-design-v2--on" transform="translate(-177.000000, -308.000000)">
		<g id="Group-2" transform="translate(177.000000, 183.000000)">
			<path id="settings" class="st0" d="M9,137.4L9,137.4c-0.8,0-1.5-0.3-2-0.8c-0.5-0.5-0.8-1.2-0.8-2c0-1.5,1.3-2.8,2.8-2.8
				c0.8,0,1.5,0.3,2,0.8c0.5,0.5,0.8,1.2,0.8,2C11.8,136.1,10.5,137.4,9,137.4z M9,132.9c-0.9,0-1.7,0.8-1.7,1.7
				c0,0.5,0.2,0.9,0.5,1.2c0.3,0.3,0.7,0.5,1.2,0.5l0,0.6v-0.6c0.9,0,1.7-0.8,1.7-1.7c0-0.5-0.2-0.9-0.5-1.2
				C9.9,133.1,9.4,132.9,9,132.9z M10.9,143.6l-3.6,0l-0.7-2.6c-0.7-0.2-1.3-0.6-1.9-1l-2.5,0.7l-1.8-3.1l1.8-1.7
				c-0.1-0.4-0.1-0.8-0.1-1.2c0-0.3,0-0.6,0.1-1l-2-2l1.8-3.1l2.7,0.8c0.6-0.5,1.2-0.8,1.9-1l0.1-0.5l1.1,0.1l-0.2,1.2l-0.4,0.1
				c-0.8,0.2-1.5,0.6-2.1,1.1L5,130.5l-2.5-0.7l-0.9,1.6l1.8,1.8l-0.1,0.3c-0.1,0.4-0.1,0.7-0.1,1c0,0.4,0,0.8,0.1,1.3l0.1,0.3
				l-1.6,1.6l0.9,1.6l2.3-0.6l0.2,0.2c0.6,0.5,1.3,0.9,2,1.1l0.3,0.1l0.6,2.4l1.8,0l0.7-2.6l0.3-0.1c0.5-0.2,1.1-0.5,1.5-0.9
				l0.2-0.2l2.5,0.7l0.9-1.6l-1.8-1.8l0.1-0.3c0.1-0.4,0.1-0.7,0.1-1c0-0.2,0-0.5-0.1-0.8l0-0.3l2.1-2l-0.9-1.6l-2.7,0.7l-0.2-0.2
				c-0.5-0.4-1-0.8-1.6-1l-0.3-0.1l-0.7-2.6l-2.8,0l0-1.1l3.7,0l0.8,2.9c0.5,0.2,1,0.5,1.4,0.9l3-0.8l1.8,3.1l-2.3,2.2
				c0,0.2,0,0.5,0,0.7c0,0.3,0,0.6-0.1,1l2,2l-1.8,3.1l-2.7-0.8c-0.4,0.3-0.9,0.6-1.3,0.8L10.9,143.6z"/>
		</g>
	</g>
</g>
</svg>
