<?xml version="1.0" encoding="utf-8"?>
<svg id="icon" xmlns="http://www.w3.org/2000/svg" viewBox="0 0 18 18"><defs><style>.cls-1{fill:#4d3d3d;}</style></defs><title>stats-1@</title><g id="Layer_2" data-name="Layer 2"><g id="Layer_1-2" data-name="Layer 1"><path class="cls-1" d="M16.31,4.5H12.94V14.62h3.37Zm-1.12,9H14.06V5.62h1.13Z"/><path class="cls-1" d="M7.31,6.75H3.94v7.87H7.31ZM6.19,13.5H5.06V7.88H6.19Z"/><path class="cls-1" d="M11.81,2.25H8.44V14.62h3.37ZM10.69,13.5H9.56V3.38h1.13Z"/><polygon class="cls-1" points="16.31 16.88 16.31 15.75 15.19 15.75 15.19 16.88 14.06 16.88 14.06 15.75 12.94 15.75 12.94 16.88 11.81 16.88 11.81 15.75 10.69 15.75 10.69 16.88 9.56 16.88 9.56 15.75 8.44 15.75 8.44 16.88 7.31 16.88 7.31 15.75 6.19 15.75 6.19 16.88 5.06 16.88 5.06 15.75 3.94 15.75 3.94 16.88 1.13 16.88 1.13 14.63 2.24 14.63 2.24 13.5 1.13 13.5 1.13 12.38 2.24 12.38 2.24 11.25 1.13 11.25 1.13 10.13 2.24 10.13 2.24 9 1.13 9 1.13 7.88 2.24 7.88 2.24 6.75 1.13 6.75 1.13 5.63 2.24 5.63 2.24 4.5 1.13 4.5 1.13 3.38 2.24 3.38 2.24 2.25 1.13 2.25 1.13 0 0 0 0 16.88 0 18 18 18 18 16.88 16.31 16.88"/></g></g></svg>
