<?xml version="1.0" encoding="utf-8"?>
<!-- Generator: Adobe Illustrator 22.1.0, SVG Export Plug-In . SVG Version: 6.00 Build 0)  -->
<svg version="1.1" id="icon" xmlns="http://www.w3.org/2000/svg" xmlns:xlink="http://www.w3.org/1999/xlink" x="0px" y="0px"
	 viewBox="0 0 18 15" style="enable-background:new 0 0 18 15;" xml:space="preserve">
<style type="text/css">
	.st0{fill:#4D3D3D;}
</style>
<title>upload</title>
<desc>Created with Sketch.</desc>
<g id="Page-1">
	<g id="Extension-design-v2--on" transform="translate(-177.000000, -234.000000)">
		<g id="Group-2" transform="translate(177.000000, 183.000000)">
			<path id="upload" class="st0" d="M9.6,62v3.1H8.4V62l-0.7,0.7l-0.8-0.8l2.1-2l2.1,2l-0.8,0.8L9.6,62z M11.8,63.4v-1.1
				c2.8,0,5.1-2.3,5.1-5.1c0-2.8-2.2-5-5-5.1c-2.6,0-4.9,2-5.1,4.6c0,0.1,0,0.2,0,0.3c0,0.1,0,0.1,0,0.2H5.6c0-0.1,0-0.1,0-0.2
				c0-0.1,0-0.3,0-0.4c0.3-3.1,3-5.6,6.2-5.6l0.1,0c3.4,0,6.1,2.8,6.1,6.2C18,60.6,15.2,63.4,11.8,63.4z M9,57.2H7.9
				c0-0.1,0-0.2,0-0.2l0-0.1l0-0.1c0.2-1.9,2-3.5,4-3.6l0,1.1c-1.4,0-2.7,1.1-2.9,2.5C9,57,9,57.1,9,57.2z M6.2,63.4H4.5
				c-2.5,0-4.5-2-4.5-4.5s2-4.5,4.5-4.5v1.1c-1.9,0-3.4,1.5-3.4,3.4s1.5,3.4,3.4,3.4h1.7V63.4z"/>
		</g>
	</g>
</g>
</svg>
